HIERARCHY
ROOT Hips
{
	OFFSET 0.00000 0.00000 0.00000
	CHANNELS 6 Xposition Yposition Zposition Zrotation Yrotation Xrotation 
	JOINT LHipJoint
	{
		OFFSET 0 0 0
		CHANNELS 3 Zrotation Yrotation Xrotation
		JOINT LeftUpLeg
		{
			OFFSET 1.37590 -1.78394 0.89329
			CHANNELS 3 Zrotation Yrotation Xrotation
			JOINT LeftLeg
			{
				OFFSET 2.47928 -6.81178 0.00000
				CHANNELS 3 Zrotation Yrotation Xrotation
				JOINT LeftFoot
				{
					OFFSET 2.63345 -7.23535 0.00000
					CHANNELS 3 Zrotation Yrotation Xrotation
					JOINT LeftToeBase
					{
						OFFSET 0.23938 -0.65768 2.27012
						CHANNELS 3 Zrotation Yrotation Xrotation
						End Site
						{
							OFFSET 0.00000 -0.00000 1.18363
						}
					}
				}
			}
		}
	}
	JOINT RHipJoint
	{
		OFFSET 0 0 0
		CHANNELS 3 Zrotation Yrotation Xrotation
		JOINT RightUpLeg
		{
			OFFSET -1.33617 -1.78394 0.89329
			CHANNELS 3 Zrotation Yrotation Xrotation
			JOINT RightLeg
			{
				OFFSET -2.56922 -7.05888 0.00000
				CHANNELS 3 Zrotation Yrotation Xrotation
				JOINT RightFoot
				{
					OFFSET -2.56568 -7.04915 0.00000
					CHANNELS 3 Zrotation Yrotation Xrotation
					JOINT RightToeBase
					{
						OFFSET -0.27533 -0.75646 2.18105
						CHANNELS 3 Zrotation Yrotation Xrotation
						End Site
						{
							OFFSET -0.00000 -0.00000 1.15233
						}
					}
				}
			}
		}
	}
	JOINT LowerBack
	{
		OFFSET 0 0 0
		CHANNELS 3 Zrotation Yrotation Xrotation
		JOINT Spine
		{
			OFFSET 0.06190 2.15152 -0.00935
			CHANNELS 3 Zrotation Yrotation Xrotation
			JOINT Spine1
			{
				OFFSET 0.06334 2.15332 0.00872
				CHANNELS 3 Zrotation Yrotation Xrotation
				JOINT Neck
				{
					OFFSET 0 0 0
					CHANNELS 3 Zrotation Yrotation Xrotation
					JOINT Neck1
					{
						OFFSET -0.04202 1.66908 0.23524
						CHANNELS 3 Zrotation Yrotation Xrotation
						JOINT Head
						{
							OFFSET 0.07510 1.69357 -0.24440
							CHANNELS 3 Zrotation Yrotation Xrotation
							End Site
							{
								OFFSET 0.02556 1.71719 -0.11000
							}
						}
					}
				}
				JOINT LeftShoulder
				{
					OFFSET 0 0 0
					CHANNELS 3 Zrotation Yrotation Xrotation
					JOINT LeftArm
					{
						OFFSET 3.67168 1.26306 -0.41342
						CHANNELS 3 Zrotation Yrotation Xrotation
						JOINT LeftForeArm
						{
							OFFSET 4.68510 -0.00000 -0.00000
							CHANNELS 3 Zrotation Yrotation Xrotation
							JOINT LeftHand
							{
								OFFSET 3.39626 -0.00000 -0.00000
								CHANNELS 3 Zrotation Yrotation Xrotation
								JOINT LeftFingerBase
								{
									OFFSET 0 0 0
									CHANNELS 3 Zrotation Yrotation Xrotation
									JOINT LeftHandIndex1
									{
										OFFSET 0.48608 -0.00000 -0.00000
										CHANNELS 3 Zrotation Yrotation Xrotation
										End Site
										{
											OFFSET 0.39189 -0.00000 -0.00000
										}
									}
								}
								JOINT LThumb
								{
									OFFSET 0 0 0
									CHANNELS 3 Zrotation Yrotation Xrotation
									End Site
									{
										OFFSET 0.39787 -0.00000 0.39787
									}
								}
							}
						}
					}
				}
				JOINT RightShoulder
				{
					OFFSET 0 0 0
					CHANNELS 3 Zrotation Yrotation Xrotation
					JOINT RightArm
					{
						OFFSET -3.04136 1.42992 -0.76390
						CHANNELS 3 Zrotation Yrotation Xrotation
						JOINT RightForeArm
						{
							OFFSET -5.55576 -0.00000 -0.00000
							CHANNELS 3 Zrotation Yrotation Xrotation
							JOINT RightHand
							{
								OFFSET -3.32774 -0.00000 -0.00000
								CHANNELS 3 Zrotation Yrotation Xrotation
								JOINT RightFingerBase
								{
									OFFSET 0 0 0
									CHANNELS 3 Zrotation Yrotation Xrotation
									JOINT RightHandIndex1
									{
										OFFSET -0.50763 -0.00000 -0.00000
										CHANNELS 3 Zrotation Yrotation Xrotation
										End Site
										{
											OFFSET -0.40926 -0.00000 -0.00000
										}
									}
								}
								JOINT RThumb
								{
									OFFSET 0 0 0
									CHANNELS 3 Zrotation Yrotation Xrotation
									End Site
									{
										OFFSET -0.41551 -0.00000 0.41551
									}
								}
							}
						}
					}
				}
			}
		}
	}
}
MOTION
Frames: 15
Frame Time: .0083333
32.8086 13.2081 4.6045 0 0 0 0 0 0 -21 0 0 0 0 0 0 0 0 0 0 0 0 0 0 21 0 0 0 0 0 0 0 0 0 0 0 0 0 0 0 0 0 0 0 0 0 0 -16 0 0 21 0 0 11 0 0 0 -8 0 0 0 0 0 0 0 0 0 0 0 0 0 0 0 0 0 0 0 0 8 0 0 0 0 0 0 0 0 0 0 0 0 0 0 0 0 0
32.8086 13.2081 4.6045 20.6041 -16.1226 -13.7594 0.0000 0.0000 0.0000 31.7776 9.4463 -0.3044 1.1024 6.6715 18.7459 -0.7863 -50.8923 67.2849 2.3936 9.6419 27.8247 0.0000 0.0000 0.0000 -122.2506 -84.7896 -177.5721 -12.0291 18.4029 -66.0811 -0.2028 3.2081 -8.0046 -0.4904 -4.4901 12.4597 -6.1956 -22.4247 17.6225 -16.9241 -45.2961 -13.2231 8.3592 -16.5483 -48.9047 -17.7398 7.1964 64.3825 15.0702 -9.9116 11.9868 9.8308 -10.2483 -0.5292 -0.0000 0.0000 0.0000 -76.2396 24.5185 103.9795 142.9664 -46.2108 -103.7357 -0.0000 -0.0000 9.2081 25.9024 27.6124 12.6848 -7.1250 0.0000 -0.0000 -5.1955 60.0821 -1.9150 -0.0000 0.0000 0.0000 79.0638 -45.8271 82.5578 -42.5085 49.4878 -20.3263 0.0000 -0.0000 -2.2256 -16.8285 -33.6043 9.5031 7.1250 -0.0000 -0.0000 19.6704 -63.7040 -9.0958
42.9705 17.8529 6.3272 -52.4307 -81.9169 57.4880 0.0000 0.0000 0.0000 -10.9020 -7.6757 -10.2945 0.6776 5.2635 14.6617 0.1275 0.7089 -7.0422 0.1217 2.2486 6.1932 0.0000 0.0000 0.0000 26.0207 2.9989 -9.9226 -0.7660 -5.5890 15.5965 0.1177 -9.6723 -11.5434 -0.5922 -4.9267 13.6997 0.1909 -2.0605 -2.8310 4.9450 -2.8263 -3.6969 4.9719 -1.4182 -1.9795 -18.6472 -15.0228 0.6598 16.2387 -26.3199 24.6984 5.2663 -13.0453 12.8944 -0.0000 -0.0000 0.0000 -88.4066 -33.0387 98.0048 138.7417 -48.7980 -100.6193 -0.0000 -0.0000 0.4799 25.9527 28.6635 13.1408 -7.1250 0.0000 -0.0000 -5.6499 61.1903 -2.2319 -0.0000 -0.0000 0.0000 74.3610 7.1532 71.1985 -38.2955 47.0270 -17.1815 0.0000 -0.0000 -8.5834 -17.0236 -34.3561 9.8033 7.1250 -0.0000 -0.0000 20.1755 -64.4539 -9.6910
42.9823 17.8524 6.3230 -52.8818 -82.0308 57.9397 0.0000 0.0000 0.0000 -10.9482 -7.6781 -10.3731 0.6855 5.2933 14.7470 0.1271 0.7937 -7.0731 0.1245 2.2745 6.2648 0.0000 0.0000 0.0000 25.9551 2.9643 -10.0540 -0.7760 -5.6243 15.6983 0.1102 -9.5329 -11.4668 -0.5911 -4.9222 13.6869 0.5920 -1.9950 -4.3394 4.5203 -2.8137 -2.3795 4.1988 -1.4385 0.1836 -18.3195 -15.2736 -0.7305 17.4805 -26.7239 24.2016 5.4532 -12.9954 13.2383 0.0000 0.0000 0.0000 -89.5492 -36.0470 100.5322 138.2853 -49.0536 -100.2752 -0.0000 0.0000 -0.6281 25.9628 28.7741 13.1913 -7.1250 0.0000 -0.0000 -5.6948 61.3076 -2.2656 0.0000 0.0000 0.0000 75.3176 9.0503 69.8599 -36.2951 45.7151 -15.7334 0.0000 -0.0000 -8.3086 -16.4374 -35.5115 9.7243 7.1250 -0.0000 -0.0000 22.0404 -65.3500 -11.0835
42.9898 17.8531 6.3173 -52.1731 -82.0374 57.2055 0.0000 0.0000 0.0000 -11.0110 -7.7801 -10.4131 0.6960 5.3329 14.8605 0.1291 0.7667 -7.1105 0.1256 2.2849 6.2936 0.0000 0.0000 0.0000 25.8914 2.8894 -10.0612 -0.7735 -5.6156 15.6730 0.1123 -9.5575 -11.4626 -0.5985 -4.9526 13.7736 0.3709 -2.2055 -3.5928 4.6339 -3.0564 -2.7994 4.4745 -1.5510 -0.6317 -18.5463 -15.1092 -0.7252 17.3506 -26.6262 24.7445 5.4660 -12.9872 13.4566 0.0000 -0.0000 0.0000 -90.9169 -35.8297 102.4249 137.7383 -49.3542 -99.8611 -0.0000 0.0000 -0.8528 25.0039 29.5130 12.9394 -7.1250 0.0000 -0.0000 -7.2178 61.8266 -2.9633 0.0000 -0.0000 0.0000 75.6333 8.1971 69.3751 -34.6731 44.5773 -14.5835 0.0000 -0.0000 -7.2908 -19.0256 -33.8222 10.8650 7.1250 -0.0000 -0.0000 17.3785 -64.5016 -8.3245
42.9908 17.8579 6.3089 -49.4952 -81.8822 54.4310 0.0000 0.0000 0.0000 -11.1420 -8.0194 -10.3139 0.7048 5.3659 14.9552 0.1328 0.5900 -7.1229 0.1261 2.2893 6.3060 0.0000 0.0000 0.0000 25.7907 2.6302 -9.8812 -0.7545 -5.5477 15.4775 0.1253 -9.7648 -11.5377 -0.6034 -4.9722 13.8293 1.1114 -1.9791 -2.7470 4.2753 -2.8279 0.2573 3.6518 -1.4558 1.9693 -14.5864 -18.2685 -14.5838 14.6703 -29.6448 28.0097 1.7984 -12.7687 17.2660 -0.0000 0.0000 0.0000 -92.8805 -43.6730 105.4318 137.1978 -49.6452 -99.4501 -0.0000 0.0000 -2.4050 25.2759 28.6830 12.7692 -7.1250 0.0000 -0.0000 -6.4478 61.0400 -2.5255 -0.0000 0.0000 0.0000 75.9608 14.8756 66.7396 -32.5294 42.9652 -13.1003 0.0000 -0.0000 -6.7744 -18.6247 -34.4175 10.7850 7.1250 -0.0000 -0.0000 18.4086 -64.9518 -9.0257
42.9998 17.8578 6.3030 -50.0236 -81.9625 54.9728 0.0000 0.0000 0.0000 -11.1187 -8.0358 -10.3847 0.7103 5.3863 15.0137 0.1304 0.7126 -7.1195 0.1356 2.3736 6.5392 0.0000 0.0000 0.0000 25.7952 2.7644 -9.9392 -0.7618 -5.5739 15.5530 0.1265 -9.7818 -11.5421 -0.6108 -5.0023 13.9151 0.1715 -2.8238 -4.0607 4.6706 -3.8939 -2.6850 4.5630 -1.9740 -0.1746 -19.6569 -14.4959 -0.4169 18.6111 -26.3191 25.0396 6.2197 -12.9200 13.8823 -0.0000 0.0000 0.0000 -93.1133 -36.6245 105.0402 137.0903 -49.7023 -99.3682 -0.0000 0.0000 -1.8645 24.0395 28.6597 12.0753 -7.1250 0.0000 -0.0000 -7.8584 60.7089 -3.0198 -0.0000 0.0000 0.0000 76.3197 7.9916 69.2992 -31.4884 42.1355 -12.3963 0.0000 -0.0000 -5.3683 -18.7902 -33.6554 10.6782 7.1250 -0.0000 -0.0000 17.4949 -64.2796 -8.2917
43.0094 17.8564 6.2990 -51.6846 -82.1499 56.6720 0.0000 0.0000 0.0000 -11.0887 -7.9219 -10.4808 0.7137 5.3991 15.0504 0.1227 0.9767 -7.0487 0.1333 2.3531 6.4825 0.0000 0.0000 0.0000 25.8155 2.9651 -10.0460 -0.7738 -5.6165 15.6758 0.1192 -9.6332 -11.4432 -0.6367 -5.1052 14.2090 0.0053 -2.9581 -3.1175 4.8735 -4.0365 -3.2891 4.9417 -2.0307 -1.2883 -20.0666 -14.1915 -0.5201 18.3554 -25.9651 25.7346 6.2736 -12.8226 14.1356 -0.0000 0.0000 0.0000 -94.2499 -36.0523 106.1002 136.7135 -49.9009 -99.0803 -0.0000 0.0000 -2.1385 24.1502 28.5867 12.1087 -7.1250 0.0000 -0.0000 -7.6922 60.6612 -2.9467 -0.0000 0.0000 0.0000 76.3451 7.0806 69.2449 -30.1441 41.0166 -11.5041 0.0000 -0.0000 -4.4654 -18.2096 -33.0534 10.1721 7.1250 -0.0000 -0.0000 17.6143 -63.5541 -8.0519
43.0162 17.8577 6.2941 -52.2886 -82.2459 57.2900 0.0000 0.0000 0.0000 -11.0896 -7.9316 -10.4948 0.7126 5.3948 15.0382 0.1215 1.0908 -7.0775 0.1357 2.3742 6.5409 0.0000 0.0000 0.0000 25.8129 3.0543 -10.0982 -0.7787 -5.6339 15.7259 0.1189 -9.6103 -11.4093 -0.6091 -4.9954 13.8955 0.4413 -2.9169 -4.4889 4.4347 -4.0452 -2.1184 4.1141 -2.0572 0.6246 -19.5761 -14.4537 -1.6079 19.2951 -26.2701 25.0134 6.3874 -12.7520 14.2354 -0.0000 0.0000 0.0000 -94.9630 -38.4239 107.8107 136.6314 -49.9437 -99.0176 -0.0000 0.0000 -2.8584 24.0481 29.8718 12.5305 -7.1250 0.0000 -0.0000 -8.5441 61.9485 -3.5365 -0.0000 0.0000 0.0000 77.4154 9.0414 68.2794 -28.4877 39.5614 -10.4329 0.0000 -0.0000 -3.9603 -18.3121 -33.0854 10.2407 7.1250 -0.0000 -0.0000 17.5265 -63.6116 -8.0341
43.0203 17.8584 6.2908 -53.3119 -82.4323 58.3145 0.0000 0.0000 0.0000 -11.1628 -7.8974 -10.4561 0.7095 5.3832 15.0050 0.1195 1.2697 -7.1251 0.1400 2.4119 6.6454 0.0000 0.0000 0.0000 25.7651 3.1608 -10.0949 -0.7804 -5.6400 15.7435 0.1145 -9.5257 -11.3589 -0.6015 -4.9645 13.8073 0.1541 -3.0899 -3.1581 4.6759 -4.2156 -3.0684 4.6343 -2.1252 -1.0470 -19.6008 -14.2155 -1.4506 18.0522 -25.8589 26.1326 6.0406 -12.6792 14.3425 0.0000 -0.0000 0.0000 -96.0125 -37.1864 108.3650 136.3869 -50.0707 -98.8302 -0.0000 0.0000 -3.2254 20.1464 25.5844 9.0024 -7.1250 0.0000 -0.0000 -10.5501 56.6887 -3.0462 0.0000 -0.0000 0.0000 77.2723 7.5389 68.4154 -27.4422 38.5977 -9.7738 0.0000 -0.0000 -3.3079 -18.3447 -33.7886 10.4482 7.1250 -0.0000 -0.0000 18.1285 -64.2842 -8.6033
43.0272 17.8582 6.2885 -55.4968 -82.6410 60.5628 0.0000 0.0000 0.0000 -11.1459 -7.8048 -10.5187 0.7075 5.3761 14.9844 0.1178 1.4966 -7.2140 0.1333 2.3533 6.4831 0.0000 0.0000 0.0000 25.7795 3.3966 -10.1980 -0.7894 -5.6717 15.8349 0.1082 -9.3886 -11.2630 -0.6059 -4.9824 13.8584 0.4838 -3.1680 -4.8943 4.4142 -4.3985 -1.9849 4.0193 -2.2373 1.0078 -19.2403 -14.1999 -1.9294 18.4583 -25.6422 25.4688 6.1483 -12.4768 14.1139 -0.0000 0.0000 0.0000 -96.3471 -39.0475 108.7812 136.0813 -50.2276 -98.5956 -0.0000 0.0000 -3.7036 22.7075 28.7559 11.3823 -7.1250 0.0000 -0.0000 -9.4241 60.4804 -3.5759 -0.0000 0.0000 0.0000 77.9910 9.1638 68.0307 -26.1845 37.3903 -8.9994 0.0000 -0.0000 -2.8634 -17.9013 -32.9231 9.9576 7.1250 -0.0000 -0.0000 17.8478 -63.3494 -8.0766
43.0316 17.8578 6.2845 -57.7118 -82.8749 62.8584 0.0000 0.0000 0.0000 -11.1594 -7.7390 -10.5431 0.7016 5.3538 14.9204 0.1146 1.7576 -7.2949 0.1442 2.4471 6.7431 0.0000 0.0000 0.0000 25.7601 3.5980 -10.2622 -0.7896 -5.6724 15.8369 0.1008 -9.2296 -11.1554 -0.6099 -4.9987 13.9050 0.1732 -3.3619 -3.5703 4.7505 -4.5962 -3.0503 4.6603 -2.3215 -0.7637 -19.6215 -13.7867 -1.5390 17.4871 -25.0594 26.5156 6.0186 -12.3732 14.2190 -0.0000 0.0000 0.0000 -97.0579 -37.4748 108.4824 135.7502 -50.3956 -98.3408 -0.0000 0.0000 -3.5967 15.2330 22.1893 5.8719 -7.1250 0.0000 -0.0000 -13.9884 52.3556 -2.5737 -0.0000 0.0000 0.0000 77.6991 7.5563 68.5138 -25.3027 36.5118 -8.4694 0.0000 -0.0000 -2.7383 -18.2111 -34.0124 10.4276 7.1250 -0.0000 -0.0000 18.4921 -64.4579 -8.8563
43.0346 17.8593 6.2800 -59.1897 -83.0171 64.3848 0.0000 0.0000 0.0000 -11.1520 -7.7091 -10.5457 0.6966 5.3351 14.8669 0.1144 1.9075 -7.3900 0.1404 2.4147 6.6533 0.0000 0.0000 0.0000 25.7568 3.7215 -10.2608 -0.7840 -5.6529 15.7804 0.1002 -9.1759 -11.0783 -0.6102 -4.9998 13.9081 0.0307 -3.3408 -2.7444 4.8456 -4.5357 -3.5221 4.9201 -2.2768 -1.6993 -19.6746 -13.7143 -1.5105 17.3412 -25.0047 26.7747 5.9897 -12.3756 14.2953 -0.0000 -0.0000 0.0000 -97.9488 -36.9971 108.8782 135.5085 -50.5169 -98.1544 -0.0000 0.0000 -3.4963 8.3074 16.0535 2.3123 -7.1250 0.0000 -0.0000 -18.0539 45.3886 -0.1791 -0.0000 -0.0000 0.0000 77.7009 6.7648 68.0812 -24.4188 35.6040 -7.9490 0.0000 -0.0000 -2.3318 -18.1718 -32.6167 10.0333 7.1250 -0.0000 -0.0000 17.2779 -63.1300 -7.7218
43.0369 17.8620 6.2747 -61.0790 -83.2165 66.2931 0.0000 0.0000 0.0000 -11.1812 -7.5883 -10.5119 0.6883 5.3040 14.7776 0.1110 2.0927 -7.4284 0.1378 2.3923 6.5913 0.0000 0.0000 0.0000 25.7129 3.8316 -10.2194 -0.7763 -5.6257 15.7021 0.0969 -9.0673 -10.9683 -0.6308 -5.0821 14.1429 0.2480 -3.3481 -3.5812 4.5838 -4.5767 -2.9756 4.4417 -2.3125 -0.7011 -19.2900 -13.7766 -2.1903 17.3061 -25.0155 26.9207 5.8644 -12.2902 14.4396 0.0000 0.0000 0.0000 -98.1459 -37.9573 109.1296 135.3822 -50.5799 -98.0569 -0.0000 0.0000 -3.3818 13.8057 18.7630 4.5193 -7.1250 0.0000 -0.0000 -13.9985 48.7466 -1.3172 0.0000 0.0000 0.0000 78.3037 7.3750 67.4374 -23.5705 34.7068 -7.4606 0.0000 -0.0000 -2.2649 -18.2440 -33.6702 10.3567 7.1250 -0.0000 -0.0000 18.1332 -64.1455 -8.5471
43.0308 17.8676 6.2629 -61.1035 -83.2789 66.3196 0.0000 0.0000 0.0000 -11.1620 -7.5419 -10.4319 0.6798 5.2717 14.6851 0.1104 2.0629 -7.3933 0.1416 2.4255 6.6830 0.0000 0.0000 0.0000 25.7221 3.8697 -10.0353 -0.7559 -5.5526 15.4917 0.1038 -9.1714 -10.9889 -0.6254 -5.0605 14.0813 0.0212 -3.5230 -3.2875 4.7300 -4.7974 -3.1616 4.7415 -2.4170 -1.0100 -19.3103 -13.6397 -2.3474 16.9595 -24.7106 27.1750 5.7947 -12.1748 14.4475 -0.0000 0.0000 0.0000 -98.5780 -37.8091 108.8731 135.2120 -50.6642 -97.9253 -0.0000 0.0000 -3.2107 15.6231 22.4090 6.0849 -7.1250 0.0000 -0.0000 -13.7006 52.6407 -2.6158 -0.0000 0.0000 0.0000 78.2177 7.0094 67.3127 -22.8699 33.9462 -7.0655 0.0000 -0.0000 -2.3330 -17.9683 -33.3239 10.1022 7.1250 -0.0000 -0.0000 18.1292 -63.7454 -8.3761
